<svg width="306.28" height="60.264" viewBox="0 0 306.28 60.264" xmlns="http://www.w3.org/2000/svg"><g id="svgGroup" stroke-linecap="round" fill-rule="evenodd" font-size="9pt" stroke="#602000" stroke-width=".5" fill="#5c2000" style="stroke:#602000;stroke-width:.5;fill:#5c2000"><path d="M 53.256 7.992 L 53.256 25.416 L 53.256 27.828 Q 53.256 29.448 53.22 31.356 Q 53.184 33.264 53.004 34.884 Q 52.824 36.504 52.464 37.296 Q 51.96 38.88 50.988 40.896 Q 50.016 42.912 49.152 44.568 Q 48.648 45.648 48.144 46.764 Q 47.64 47.88 46.992 48.888 Q 45.696 50.472 43.644 52.272 Q 41.592 54.072 39.936 55.152 Q 38.856 55.8 37.236 56.304 Q 35.616 56.808 33.996 57.168 Q 32.376 57.528 31.296 57.744 Q 30.648 57.96 28.992 58.032 Q 27.336 58.104 25.212 58.032 Q 23.088 57.96 20.928 57.672 Q 18.768 57.384 17.112 56.952 Q 15.456 56.52 14.808 55.872 Q 13.728 55.152 12.144 54.252 Q 10.56 53.352 8.976 52.272 Q 7.392 51.192 6.312 50.112 Q 4.728 48.456 3.072 45.972 Q 1.416 43.488 0.624 41.904 Q 0.048 40.392 0.048 39.024 Q 0.048 38.808 0.012 38.592 Q -0.024 38.376 0.048 38.232 L 0.228 37.872 L 0.408 37.512 Q 0.552 37.368 0.624 37.116 Q 0.696 36.864 0.768 36.792 Q 0.912 36.648 1.092 36.504 Q 1.272 36.36 1.416 36.288 Q 2.208 35.712 3.144 35.46 Q 4.08 35.208 4.944 34.776 Q 5.952 34.2 6.852 33.444 Q 7.752 32.688 8.904 32.328 Q 9.912 31.968 11.064 31.932 Q 12.216 31.896 13.296 31.896 Q 14.952 31.896 16.68 31.86 Q 18.408 31.824 19.992 31.896 Q 21 31.968 21.936 32.076 Q 22.872 32.184 23.808 32.544 Q 24.168 32.616 24.456 32.76 L 25.032 33.048 Q 25.176 33.12 25.32 33.228 Q 25.464 33.336 25.608 33.336 Q 25.824 33.408 26.112 33.3 Q 26.4 33.192 26.616 33.192 Q 26.76 33.12 26.868 33.156 Q 26.976 33.192 27.048 33.12 Q 27.12 32.976 27.084 32.868 Q 27.048 32.76 27.12 32.688 L 27.336 31.608 Q 27.408 30.816 27.372 30.024 Q 27.336 29.232 27.336 28.512 L 27.336 26.676 Q 27.336 25.776 27.192 24.84 Q 27.12 24.624 27.12 24.372 Q 27.12 24.12 27.048 23.904 L 26.544 23.04 L 26.4 22.752 Q 26.328 22.608 26.184 22.536 Q 26.04 22.392 25.752 22.284 Q 25.464 22.176 25.32 22.104 A 5.489 5.489 0 0 0 22.833 21.562 A 7.421 7.421 0 0 0 22.656 21.564 Q 21.144 21.6 19.848 21.6 L 13.728 21.6 Q 12.648 21.528 11.532 21.456 Q 10.416 21.384 9.408 21.096 Q 8.328 20.736 7.356 19.98 Q 6.384 19.224 5.664 18.432 Q 5.16 17.856 4.872 17.208 Q 4.584 16.56 4.296 15.84 Q 4.224 15.552 4.224 15.264 Q 4.224 14.976 4.152 14.688 Q 4.008 13.68 4.008 12.744 L 4.008 10.872 L 4.008 8.352 Q 4.008 7.056 4.44 5.904 Q 4.584 5.76 4.656 5.472 Q 4.728 5.184 4.872 5.04 Q 5.016 4.896 5.196 4.752 Q 5.376 4.608 5.52 4.536 L 5.808 4.248 Q 5.952 4.104 6.096 4.032 Q 6.816 3.672 7.572 3.528 Q 8.328 3.384 9.048 3.096 L 9.912 2.592 Q 10.704 2.088 11.424 1.476 Q 12.144 0.864 13.008 0.576 Q 13.872 0.216 14.844 0.108 Q 15.816 0 16.752 0 L 47.208 0 Q 48.072 0 48.9 0.072 Q 49.728 0.144 50.52 0.36 Q 50.664 0.432 50.88 0.468 Q 51.096 0.504 51.24 0.648 Q 51.384 0.72 51.564 0.864 Q 51.744 1.008 51.816 1.152 Q 52.248 1.44 52.464 1.656 Q 52.752 2.16 52.824 2.592 Q 53.328 3.744 53.292 5.148 Q 53.256 6.552 53.256 7.992 Z M 241.248 5.688 L 241.032 5.112 L 240.456 4.824 Q 240.24 4.752 240.024 4.644 L 239.664 4.464 Q 239.376 4.32 239.088 4.356 A 1.546 1.546 0 0 1 238.896 4.368 A 1.578 1.578 0 0 1 238.512 4.32 Q 237.792 4.176 237.072 4.212 Q 236.352 4.248 235.632 4.248 L 231.24 4.248 Q 230.088 4.248 229.008 4.212 Q 227.928 4.176 226.776 4.32 Q 226.2 4.392 225.588 4.464 Q 224.976 4.536 224.4 4.752 Q 223.104 5.256 222.276 6.336 Q 221.448 7.416 220.8 8.64 L 217.848 13.824 Q 217.488 14.544 217.056 15.372 Q 216.624 16.2 216.048 16.776 Q 215.976 16.848 215.76 17.1 Q 215.544 17.352 215.4 17.424 Q 215.184 17.424 214.896 17.136 Q 214.608 17.136 214.392 16.92 Q 214.32 16.776 214.32 16.596 L 214.32 16.344 Q 214.248 15.984 214.212 15.624 A 6.574 6.574 0 0 1 214.176 14.976 L 214.176 12.132 Q 214.176 10.728 214.104 9.36 Q 214.104 7.92 213.6 6.696 Q 213.528 6.552 213.492 6.336 Q 213.456 6.12 213.312 5.976 L 212.808 5.544 Q 212.664 5.4 212.484 5.184 Q 212.304 4.968 212.088 4.896 Q 211.584 4.608 210.9 4.5 Q 210.216 4.392 209.64 4.32 Q 208.56 4.176 207.48 4.212 Q 206.4 4.248 205.248 4.248 Q 204.168 4.248 203.052 4.212 Q 201.936 4.176 200.856 4.32 Q 199.92 4.392 198.948 4.716 Q 197.976 5.04 197.4 5.904 Q 196.896 6.624 196.752 7.632 Q 196.608 8.64 196.536 9.504 L 196.536 43.272 Q 196.536 44.856 196.464 46.98 Q 196.392 49.104 196.68 50.76 Q 196.824 51.768 197.256 52.704 Q 197.688 53.64 198.624 54.144 L 199.416 54.36 Q 200.136 54.504 200.82 54.576 Q 201.504 54.648 202.224 54.648 Q 203.88 54.648 206.076 54.684 Q 208.272 54.72 209.856 54.576 Q 210.864 54.432 211.836 54.144 Q 212.808 53.856 213.384 52.992 Q 213.528 52.848 213.528 52.668 Q 213.528 52.488 213.6 52.416 Q 213.96 51.696 214.032 50.976 L 214.176 49.536 Q 214.176 47.88 214.14 46.26 Q 214.104 44.64 214.176 43.056 Q 214.176 42.12 214.392 41.256 Q 214.464 41.112 214.464 40.896 Q 214.464 40.68 214.536 40.608 Q 214.68 40.536 214.896 40.572 Q 215.112 40.608 215.184 40.608 L 215.832 40.536 Q 215.976 40.608 216.156 40.896 Q 216.336 41.184 216.408 41.328 Q 216.912 42.048 217.308 42.768 Q 217.704 43.488 218.064 44.28 L 221.16 49.752 Q 221.952 51.192 223.068 52.524 Q 224.184 53.856 225.768 54.288 Q 226.992 54.648 228.288 54.648 L 230.736 54.648 Q 232.392 54.648 234.516 54.684 Q 236.64 54.72 238.224 54.648 Q 238.944 54.648 239.7 54.612 Q 240.456 54.576 241.104 54.288 Q 241.464 54.144 241.752 53.856 Q 241.896 53.712 242.112 53.604 Q 242.328 53.496 242.4 53.424 Q 242.544 53.28 242.544 53.1 Q 242.544 52.92 242.616 52.848 Q 242.688 52.632 242.796 52.38 Q 242.904 52.128 242.904 51.912 Q 242.904 51.624 242.796 51.336 Q 242.688 51.048 242.544 50.76 Q 242.4 50.184 242.076 49.572 Q 241.752 48.96 241.392 48.384 Q 240.96 47.592 240.528 46.836 Q 240.096 46.08 239.52 45.216 Q 238.44 44.136 237.36 41.94 Q 236.28 39.744 235.2 37.584 Q 234.12 35.424 233.04 34.344 Q 232.248 32.904 231.348 31.284 A 6.078 6.078 0 0 1 230.515 28.315 A 5.172 5.172 0 0 1 230.52 28.08 Q 230.592 26.496 231.528 25.02 Q 232.464 23.544 233.184 22.176 Q 234.264 21.096 235.308 19.008 Q 236.352 16.92 237.396 14.796 Q 238.44 12.672 239.52 11.592 Q 240.096 10.584 240.744 9.504 Q 241.392 8.424 241.536 7.272 Q 241.536 7.128 241.608 6.876 Q 241.68 6.624 241.608 6.48 Q 241.608 6.336 241.5 6.084 Q 241.392 5.832 241.248 5.688 Z M 138.288 54.648 L 169.752 54.648 Q 170.544 54.648 171.228 54.576 Q 171.912 54.504 172.632 54.288 Q 172.776 54.216 173.028 54.18 Q 173.28 54.144 173.352 54.072 Q 173.496 54 173.64 53.856 L 173.856 53.64 Q 174.288 53.352 174.648 52.992 Q 174.72 52.848 174.756 52.668 Q 174.792 52.488 174.864 52.344 Q 175.224 51.408 175.296 50.616 Q 175.512 47.376 175.296 44.136 Q 175.224 43.416 175.044 42.768 Q 174.864 42.12 174.504 41.616 Q 174.36 41.184 174.144 40.968 Q 174 40.824 173.784 40.716 L 173.424 40.536 Q 172.776 40.176 172.092 40.032 Q 171.408 39.888 170.688 39.816 L 164.568 39.816 L 163.056 39.816 Q 162.264 39.816 161.544 39.528 Q 161.472 39.528 161.184 39.42 Q 160.896 39.312 160.824 39.24 Q 160.752 39.168 160.86 38.88 Q 160.968 38.592 160.968 38.52 L 160.968 38.196 Q 160.968 38.016 161.04 37.944 Q 161.184 37.8 161.364 37.656 Q 161.544 37.512 161.616 37.44 Q 162.552 36.648 163.488 36 Q 164.568 34.92 166.224 33.12 L 169.536 29.52 Q 171.192 27.72 172.2 26.64 Q 173.568 24.12 174 21.096 Q 174.288 18.864 173.856 16.488 Q 173.568 14.4 172.56 12.6 Q 171.912 11.952 170.04 10.836 Q 168.168 9.72 165.72 8.46 Q 163.272 7.2 160.788 6.048 Q 158.304 4.896 156.432 4.14 Q 154.56 3.384 153.912 3.312 L 151.86 3.312 Q 150.816 3.312 149.808 3.456 Q 149.016 3.672 147 4.392 Q 144.984 5.112 142.644 6.084 Q 140.304 7.056 138.288 8.1 Q 136.272 9.144 135.48 9.936 Q 134.76 10.728 134.148 11.628 Q 133.536 12.528 132.96 13.536 Q 132.312 14.688 131.808 16.128 Q 131.304 17.568 131.376 19.008 Q 131.376 19.584 131.52 20.232 Q 131.664 20.88 132.024 21.384 Q 132.24 21.6 132.528 21.744 Q 132.672 21.816 132.852 21.996 Q 133.032 22.176 133.248 22.248 Q 133.824 22.536 134.472 22.608 Q 135.12 22.68 135.696 22.68 Q 137.28 22.752 138.792 22.752 L 141.888 22.752 Q 143.112 22.752 144.48 22.644 Q 145.848 22.536 147 21.96 Q 148.224 21.384 149.088 20.304 Q 149.952 19.224 151.104 18.72 Q 151.32 18.576 151.572 18.468 Q 151.824 18.36 151.968 18.36 Q 152.256 18.288 152.58 18.36 Q 152.904 18.432 153.192 18.504 L 153.552 18.504 Q 153.696 18.576 153.912 18.828 Q 154.128 19.08 154.2 19.224 Q 154.344 19.296 154.452 19.404 Q 154.56 19.512 154.632 19.656 L 154.632 20.088 Q 154.704 20.376 154.74 20.7 A 1.919 1.919 0 0 1 154.752 20.912 A 1.643 1.643 0 0 1 154.704 21.312 Q 154.632 21.888 154.344 22.5 Q 154.056 23.112 153.696 23.688 Q 152.832 25.056 151.608 26.208 Q 150.384 27.36 149.16 28.368 Q 148.368 29.16 146.784 30.348 Q 145.2 31.536 143.364 32.796 Q 141.528 34.056 139.908 35.244 Q 138.288 36.432 137.496 37.224 Q 136.632 37.8 135.804 38.448 Q 134.976 39.096 134.112 39.672 Q 133.392 40.248 132.708 40.86 Q 132.024 41.472 131.448 42.264 Q 130.296 43.848 130.08 46.296 A 22.308 22.308 0 0 0 129.988 48.249 A 12.643 12.643 0 0 0 130.152 50.4 Q 130.296 51.336 130.656 52.344 Q 131.016 53.352 131.88 53.928 Q 132.312 54.216 132.924 54.36 Q 133.536 54.504 134.04 54.576 Q 135.048 54.648 136.092 54.648 L 138.288 54.648 Z M 166.8 59.76 L 137.784 59.76 Q 136.2 59.76 134.544 59.832 Q 132.888 59.904 131.232 59.616 Q 131.016 59.544 130.764 59.508 Q 130.512 59.472 130.296 59.4 Q 130.08 59.328 129.864 59.184 Q 129.648 59.04 129.432 58.968 Q 129.36 58.824 129.216 58.788 Q 129.072 58.752 128.928 58.68 Q 128.856 58.536 128.784 58.356 Q 128.712 58.176 128.64 58.104 Q 128.568 57.96 128.424 57.744 Q 128.28 57.528 128.208 57.384 Q 127.92 56.592 127.884 55.764 Q 127.848 54.936 127.632 54.216 Q 127.344 53.064 126.696 52.128 Q 126.048 51.192 125.616 50.112 Q 125.04 48.672 125.004 47.052 Q 124.968 45.432 125.04 43.992 Q 125.112 42.84 125.328 41.688 Q 125.544 40.536 126.192 39.6 Q 126.768 38.664 127.632 37.98 Q 128.496 37.296 129.36 36.648 Q 130.656 35.64 131.952 34.704 Q 133.248 33.768 134.616 32.832 Q 135.408 32.256 136.236 31.68 Q 137.064 31.104 137.784 30.456 Q 137.928 30.312 138.252 30.06 Q 138.576 29.808 138.648 29.592 Q 138.72 29.448 138.648 29.124 Q 138.576 28.8 138.576 28.656 Q 138.576 28.368 138.504 28.224 Q 138.432 28.152 138.36 28.188 Q 138.288 28.224 138.144 28.152 Q 137.856 28.08 137.604 28.008 Q 137.352 27.936 136.992 27.864 Q 135.768 27.72 134.436 27.792 Q 133.104 27.864 131.88 27.576 Q 131.592 27.504 131.34 27.432 Q 131.088 27.36 130.872 27.288 L 130.584 27 Q 130.44 26.856 130.296 26.784 Q 129.864 26.496 129.648 26.28 Q 129.576 26.136 129.504 25.92 Q 129.432 25.704 129.36 25.56 Q 129 24.552 128.892 23.58 Q 128.784 22.608 128.424 21.672 Q 127.992 20.52 127.272 19.584 Q 126.552 18.648 126.264 17.496 Q 126.192 16.416 126.408 15.12 Q 126.624 13.752 127.128 12.42 Q 127.632 11.088 128.352 9.864 Q 129 9.216 130.692 8.136 Q 132.384 7.056 134.544 5.832 Q 136.704 4.608 138.864 3.456 Q 141.024 2.304 142.716 1.512 Q 144.408 0.72 145.056 0.576 Q 146.136 0.432 147.792 0.432 L 151.068 0.432 L 153.768 0.432 A 1.393 1.393 0 0 1 153.921 0.424 A 11.527 11.527 0 0 1 156.54 0.972 Q 158.664 1.584 161.508 2.556 Q 164.352 3.528 167.196 4.608 Q 170.04 5.688 172.164 6.696 Q 174.288 7.704 174.936 8.352 Q 175.728 9.504 176.232 10.764 Q 176.736 12.024 177.24 13.248 Q 177.816 14.616 178.248 15.984 Q 178.68 17.352 178.896 18.792 Q 179.256 20.376 178.968 22.788 Q 178.68 25.2 177.888 26.856 Q 177.096 28.44 175.872 30.204 Q 174.648 31.968 173.28 33.552 Q 173.064 33.84 172.74 34.092 Q 172.416 34.344 172.272 34.704 Q 172.2 34.848 172.128 35.1 Q 172.056 35.352 171.984 35.496 Q 171.912 35.568 171.804 35.784 Q 171.696 36 171.768 36.072 Q 171.768 36.144 171.876 36.18 Q 171.984 36.216 172.056 36.288 Q 172.416 36.504 172.74 36.684 Q 173.064 36.864 173.424 36.936 Q 174.432 37.008 175.548 37.224 Q 176.664 37.44 177.456 38.232 Q 178.032 38.808 178.428 39.636 Q 178.824 40.464 179.112 41.256 Q 179.328 41.904 179.58 42.516 Q 179.832 43.128 179.976 43.776 Q 180.48 45.36 180.408 47.628 Q 180.336 49.896 180.264 51.696 Q 180.192 52.344 180.156 53.1 Q 180.12 53.856 179.76 54.432 Q 179.688 54.648 179.472 54.864 L 179.112 55.224 Q 178.968 55.584 178.752 55.656 Q 178.104 56.16 177.276 56.304 Q 176.448 56.448 175.728 56.664 Q 175.44 56.736 175.188 56.88 Q 174.936 57.024 174.648 57.168 Q 173.856 57.456 173.172 58.068 Q 172.488 58.68 171.696 59.04 Q 170.904 59.4 170.256 59.544 Q 169.464 59.76 168.564 59.76 L 166.8 59.76 Z M 50.376 27.864 L 50.376 9.864 Q 50.376 9.144 50.304 8.46 Q 50.232 7.776 49.944 7.056 Q 49.872 6.912 49.872 6.696 Q 49.872 6.48 49.728 6.336 Q 49.224 5.4 48.324 4.932 Q 47.424 4.464 46.416 4.392 Q 45.048 4.248 43.572 4.248 L 40.656 4.248 L 14.016 4.248 L 12.576 4.392 Q 11.856 4.464 11.136 4.68 Q 10.992 4.752 10.776 4.752 Q 10.56 4.752 10.416 4.896 Q 9.552 5.4 9.12 6.3 Q 8.688 7.2 8.544 8.208 A 20.27 20.27 0 0 0 8.359 10.95 A 20.8 20.8 0 0 0 8.364 11.412 Q 8.4 13.032 8.472 14.688 Q 8.616 16.056 9.336 17.208 Q 9.48 17.28 9.588 17.46 Q 9.696 17.64 9.768 17.784 Q 9.912 17.856 10.164 17.964 Q 10.416 18.072 10.56 18.216 Q 11.496 18.72 12.612 18.792 Q 13.728 18.864 14.736 18.864 L 25.248 18.864 L 26.904 18.864 Q 27.768 18.864 28.56 19.008 L 29.028 19.008 Q 29.28 19.008 29.496 19.152 Q 29.64 19.224 29.82 19.332 Q 30 19.44 30.144 19.512 L 30.504 19.692 Q 30.72 19.8 30.792 19.944 Q 30.936 20.088 31.08 20.52 Q 31.224 20.664 31.332 20.844 Q 31.44 21.024 31.512 21.24 Q 31.656 21.744 31.656 22.284 Q 31.656 22.824 31.728 23.328 L 31.728 29.808 Q 31.728 31.392 31.764 33.156 Q 31.8 34.92 31.512 36.576 Q 31.44 37.08 31.26 37.62 Q 31.08 38.16 30.792 38.736 Q 30.36 39.456 29.784 39.96 Q 28.848 40.824 27.48 40.824 Q 26.112 40.824 25.032 40.104 Q 24.312 39.672 23.808 39.024 Q 23.304 38.376 22.728 37.872 Q 21.504 36.864 19.92 36.432 Q 19.056 36.216 18.156 36.18 Q 17.256 36.144 16.392 36.144 L 10.488 36.144 Q 9.552 36.144 8.652 36.18 Q 7.752 36.216 6.888 36.576 Q 6.744 36.648 6.528 36.648 Q 6.312 36.648 6.168 36.792 Q 6.024 36.864 5.844 37.044 L 5.52 37.368 L 5.304 37.584 Q 5.16 37.728 5.088 37.872 Q 5.016 37.944 4.98 38.124 Q 4.944 38.304 4.872 38.448 L 4.728 38.88 Q 4.656 39.096 4.584 39.24 L 4.584 39.78 Q 4.584 40.032 4.656 40.248 Q 4.656 41.4 5.016 42.48 Q 5.376 43.56 5.88 44.568 Q 6.672 45.36 8.436 46.728 Q 10.2 48.096 12.288 49.608 Q 14.376 51.12 16.14 52.38 Q 17.904 53.64 18.696 54.216 Q 21.648 55.008 24.6 55.224 Q 25.248 55.368 27.516 54.792 Q 29.784 54.216 32.808 53.172 Q 35.832 52.128 38.82 50.94 Q 41.808 49.752 44.076 48.672 Q 46.344 47.592 46.992 46.944 Q 48.072 45.504 48.648 44.136 Q 49.44 42.48 49.8 40.536 Q 50.16 38.592 50.304 36.792 Q 50.376 35.712 50.376 34.02 L 50.376 30.636 L 50.376 27.864 Z M 191.064 46.008 L 191.064 12.024 Q 191.064 10.584 191.028 9.108 Q 190.992 7.632 191.136 6.264 Q 191.208 5.688 191.352 4.968 Q 191.496 4.248 191.784 3.672 Q 192.216 3.096 192.936 2.7 Q 193.656 2.304 194.376 2.16 Q 195.6 1.872 196.86 1.944 Q 198.12 2.016 199.344 2.016 Q 201 2.016 203.052 1.98 Q 205.104 1.944 206.688 2.232 Q 208.344 2.52 209.892 2.988 Q 211.44 3.456 213.024 3.6 Q 213.816 3.6 214.68 3.528 Q 215.544 3.456 216.264 3.312 Q 217.416 3.024 218.532 2.628 Q 219.648 2.232 220.8 2.088 Q 222.456 1.944 224.112 1.98 Q 225.768 2.016 227.352 2.016 Q 229.008 2.016 231.024 1.98 A 31.773 31.773 0 0 1 231.591 1.975 A 22.581 22.581 0 0 1 234.624 2.16 Q 235.704 2.232 236.748 2.52 Q 237.792 2.808 238.8 3.096 Q 239.88 3.384 240.996 3.492 Q 242.112 3.6 243.12 3.96 Q 243.336 4.032 243.624 4.104 Q 243.912 4.176 244.056 4.32 Q 244.272 4.392 244.416 4.752 Q 244.56 4.896 244.74 5.112 Q 244.92 5.328 244.992 5.472 Q 245.064 5.616 245.028 5.868 Q 244.992 6.12 244.992 6.264 Q 245.064 7.272 244.596 8.244 Q 244.128 9.216 243.624 10.08 L 242.976 11.16 Q 242.184 11.952 241.356 13.464 Q 240.528 14.976 239.664 16.704 Q 238.8 18.432 237.972 19.944 Q 237.144 21.456 236.352 22.248 Q 235.488 23.616 234.66 25.272 A 5.452 5.452 0 0 0 234.046 27.729 A 4.98 4.98 0 0 0 234.12 28.584 Q 234.264 29.16 234.516 29.772 Q 234.768 30.384 235.056 30.96 Q 235.632 32.112 236.244 33.156 Q 236.856 34.2 237.504 35.28 Q 238.368 36.36 239.232 38.016 Q 240.096 39.672 240.996 41.328 Q 241.896 42.984 242.76 44.064 Q 243.408 45.216 244.128 46.368 Q 244.848 47.52 245.424 48.744 Q 245.712 49.248 245.964 49.824 Q 246.216 50.4 246.288 50.976 Q 246.432 51.408 246.432 51.696 Q 246.432 52.344 246.18 52.884 Q 245.928 53.424 245.568 53.928 Q 243.696 56.448 240.24 56.808 Q 239.16 56.88 237.144 56.88 L 233.148 56.88 L 230.088 56.88 L 226.74 56.88 Q 224.976 56.88 223.392 56.376 Q 222.6 56.088 221.88 55.62 Q 221.16 55.152 220.44 54.648 Q 219.792 54 218.712 53.568 Q 218.64 53.496 218.46 53.424 Q 218.28 53.352 218.136 53.352 Q 217.92 53.352 217.488 53.496 Q 217.344 53.568 217.092 53.568 Q 216.84 53.568 216.696 53.64 Q 216.48 53.712 216.3 53.892 Q 216.12 54.072 215.904 54.216 Q 215.184 54.72 214.464 55.332 Q 213.744 55.944 212.88 56.304 Q 211.728 56.808 210.504 56.844 Q 209.28 56.88 208.128 56.88 L 204.096 56.88 Q 201.648 56.88 199.992 56.808 Q 198.984 56.736 197.868 56.628 Q 196.752 56.52 195.888 56.016 Q 195.168 55.656 194.664 55.008 Q 194.304 54.648 193.98 54.18 Q 193.656 53.712 193.296 53.28 Q 192.72 52.488 192.144 51.588 Q 191.568 50.688 191.28 49.68 Q 191.064 48.816 191.064 47.88 L 191.064 46.008 Z M 76.224 28.872 L 80.76 28.872 L 82.956 28.872 Q 84.072 28.872 85.152 28.728 Q 85.872 28.584 86.556 28.368 Q 87.24 28.152 87.888 27.864 Q 88.248 27.72 88.716 27.504 Q 89.184 27.288 89.544 27.216 Q 89.688 27.144 89.904 27.18 Q 90.12 27.216 90.336 27.216 Q 90.48 27.216 90.732 27.18 Q 90.984 27.144 91.128 27.216 Q 91.488 27.36 91.632 27.72 Q 91.776 27.792 91.992 27.972 Q 92.208 28.152 92.208 28.296 Q 92.208 28.368 92.136 28.548 Q 92.064 28.728 91.992 28.872 Q 91.92 29.016 91.884 29.34 Q 91.848 29.664 91.704 29.808 Q 91.56 30.024 91.2 30.132 Q 90.84 30.24 90.624 30.384 Q 90.048 30.672 89.364 30.78 Q 88.68 30.888 88.104 31.032 Q 87.024 31.248 85.944 31.428 Q 84.864 31.608 83.856 31.824 Q 83.064 32.256 81.048 33.48 Q 79.032 34.704 76.728 36.252 Q 74.424 37.8 72.516 39.204 Q 70.608 40.608 70.032 41.4 Q 69.816 42.048 69.78 42.732 Q 69.744 43.416 69.672 44.136 Q 69.672 45.864 70.392 47.664 Q 71.04 48.312 72.696 49.356 Q 74.352 50.4 76.476 51.516 Q 78.6 52.632 80.688 53.568 Q 82.776 54.504 84.432 54.9 A 5.969 5.969 0 0 0 85.786 55.089 A 1.704 1.704 0 0 0 86.736 54.864 Q 87.672 54.648 88.572 54.324 Q 89.472 54 90.336 53.496 Q 90.768 53.208 91.2 53.028 Q 91.632 52.848 92.136 52.704 Q 92.28 52.632 92.46 52.56 Q 92.64 52.488 92.712 52.488 Q 92.856 52.488 93 52.596 Q 93.144 52.704 93.216 52.704 Q 93.504 52.776 93.72 52.884 Q 93.936 52.992 94.152 53.136 Q 94.512 53.28 94.8 53.568 Q 95.088 53.856 95.376 54.072 Q 95.736 54.144 96.132 54.288 Q 96.528 54.432 96.816 54.504 Q 97.464 54.576 98.112 54.612 Q 98.76 54.648 99.336 54.648 L 103.368 54.648 L 105.528 54.648 Q 106.68 54.648 107.616 54.288 Q 108.264 54.144 108.984 53.568 Q 109.2 53.352 109.344 52.92 Q 110.136 51.696 110.172 50.22 Q 110.208 48.744 110.208 47.376 L 110.208 35.856 Q 110.208 34.776 110.172 32.796 Q 110.136 30.816 109.884 28.8 Q 109.632 26.784 108.984 25.632 Q 108.48 24.624 107.904 23.652 Q 107.328 22.68 106.536 21.816 Q 105.024 20.16 102.756 19.08 Q 100.488 18 98.832 17.496 Q 98.184 17.064 96.528 16.812 Q 94.872 16.56 92.748 16.524 Q 90.624 16.488 88.5 16.596 Q 86.376 16.704 84.72 16.992 Q 83.064 17.28 82.416 17.712 Q 80.832 18.36 78.384 19.692 Q 75.936 21.024 74.424 22.68 Q 73.92 23.256 73.488 23.94 Q 73.056 24.624 72.768 25.416 Q 72.768 25.56 72.696 25.776 Q 72.624 25.992 72.552 26.136 Q 72.552 26.424 72.66 26.712 Q 72.768 27 72.84 27.216 Q 72.84 27.288 72.876 27.432 Q 72.912 27.576 73.2 27.864 Q 73.416 28.008 73.668 28.224 Q 73.92 28.44 74.136 28.584 Q 74.568 28.728 75.18 28.764 Q 75.792 28.8 76.224 28.872 Z M 113.376 33.12 L 113.376 46.872 Q 113.376 47.88 113.34 48.96 Q 113.304 50.04 112.944 51.048 Q 112.584 52.128 111.828 53.028 Q 111.072 53.928 110.496 54.936 Q 109.92 55.872 109.416 56.988 Q 108.912 58.104 107.904 58.752 Q 107.616 58.968 107.184 59.112 Q 106.752 59.256 106.392 59.4 Q 105.456 59.688 104.304 59.688 L 102.144 59.688 Q 100.56 59.688 98.904 59.724 A 11.702 11.702 0 0 1 98.65 59.727 A 11.297 11.297 0 0 1 95.664 59.328 Q 94.584 58.968 93.54 58.428 Q 92.496 57.888 91.272 58.032 Q 90.984 58.032 90.768 58.104 Q 90.552 58.176 90.336 58.32 Q 89.4 58.608 88.572 58.968 Q 87.744 59.328 86.808 59.616 Q 85.656 59.976 84.432 60.12 Q 83.208 60.264 81.984 60.264 Q 81.192 60.192 79.68 59.688 Q 78.168 59.184 76.44 58.356 Q 74.712 57.528 73.2 56.628 Q 71.688 55.728 70.896 54.936 Q 69.744 53.496 69.204 51.66 Q 68.664 49.824 68.304 48.24 Q 67.872 46.368 67.872 44.352 Q 67.872 42.696 68.448 40.716 Q 69.024 38.736 69.672 37.152 Q 70.032 36.36 70.32 35.496 Q 70.608 34.632 70.752 33.696 A 8.277 8.277 0 0 0 70.964 31.857 A 7.635 7.635 0 0 0 70.86 30.6 Q 70.608 29.088 70.68 27.504 Q 70.752 26.496 71.004 25.524 Q 71.256 24.552 71.544 23.616 Q 72.12 21.96 72.948 20.412 Q 73.776 18.864 75.144 17.64 Q 75.936 16.848 77.448 16.092 Q 78.96 15.336 80.688 14.688 Q 82.416 14.04 83.928 13.572 Q 85.44 13.104 86.232 12.888 Q 87.024 12.672 89.148 12.6 A 36.884 36.884 0 0 1 90.397 12.579 A 48.988 48.988 0 0 1 93.828 12.708 Q 96.384 12.888 98.508 13.32 Q 100.632 13.752 101.424 14.544 Q 102.792 15.192 104.052 16.02 Q 105.312 16.848 106.464 17.784 Q 107.832 18.792 109.092 20.016 Q 110.352 21.24 111.216 22.752 Q 112.152 23.832 112.584 25.884 Q 113.016 27.936 113.196 29.988 Q 113.376 32.04 113.376 33.12 Z M 306.264 35.784 Q 306.336 37.368 306.084 39.888 Q 305.832 42.408 305.184 44.208 Q 304.464 45.792 303.384 47.664 Q 302.304 49.536 301.008 51.192 Q 299.856 52.704 298.524 54.072 Q 297.192 55.44 295.536 56.448 Q 293.952 57.6 291.432 58.248 Q 288.912 58.896 287.256 59.256 Q 286.464 59.472 284.916 59.544 Q 283.368 59.616 281.604 59.616 Q 279.84 59.616 278.292 59.472 Q 276.744 59.328 275.952 59.04 Q 274.368 58.68 272.496 58.14 Q 270.624 57.6 268.968 56.664 Q 267.384 55.512 265.692 53.748 Q 264 51.984 262.704 50.4 Q 261.768 48.96 260.832 47.448 Q 259.896 45.936 259.248 44.352 Q 258.672 43.272 258.348 41.544 Q 258.024 39.816 257.88 38.124 Q 257.736 36.432 257.736 35.352 Q 257.736 34.272 257.808 32.688 Q 257.88 31.104 258.132 29.52 Q 258.384 27.936 258.816 26.856 Q 259.176 25.992 259.572 25.092 Q 259.968 24.192 260.472 23.472 Q 260.832 22.896 261.228 22.392 Q 261.624 21.888 262.056 21.384 Q 262.704 20.736 264.936 19.908 Q 267.168 19.08 270.12 18.288 Q 273.072 17.496 276.024 16.848 Q 278.976 16.2 281.208 15.948 A 15.984 15.984 0 0 1 282.946 15.83 A 3.047 3.047 0 0 1 284.088 15.984 Q 284.88 16.2 287.004 16.56 Q 289.128 16.92 291.612 17.388 Q 294.096 17.856 296.22 18.504 Q 298.344 19.152 299.136 19.944 Q 300.216 20.952 301.512 22.644 Q 302.808 24.336 303.888 26.028 Q 304.968 27.72 305.472 28.8 Q 305.976 30.384 306.12 32.256 Q 306.264 34.128 306.264 35.784 Z M 296.976 50.976 Q 297.624 50.328 298.38 48.672 Q 299.136 47.016 299.892 44.892 Q 300.648 42.768 301.26 40.68 Q 301.872 38.592 302.232 36.936 Q 302.592 35.28 302.52 34.632 Q 302.448 33.84 302.16 32.22 Q 301.872 30.6 301.368 28.728 Q 300.864 26.856 300.18 25.236 Q 299.496 23.616 298.704 22.824 Q 298.056 22.176 296.364 21.348 Q 294.672 20.52 292.44 19.692 Q 290.208 18.864 287.976 18.18 Q 285.744 17.496 284.052 17.028 Q 282.36 16.56 281.712 16.56 Q 280.56 16.488 279.372 16.596 Q 278.184 16.704 276.96 16.848 Q 275.376 17.064 273.288 17.532 Q 271.2 18 269.4 19.008 Q 268.32 19.584 267.348 20.268 Q 266.376 20.952 265.44 21.816 Q 263.856 23.4 262.704 25.92 Q 261.552 28.44 261.048 30.096 Q 260.76 31.68 260.688 33.66 Q 260.616 35.64 260.616 37.296 Q 260.688 38.088 261.084 39.852 Q 261.48 41.616 262.128 43.668 Q 262.776 45.72 263.568 47.484 Q 264.36 49.248 265.152 50.04 Q 266.808 51.624 269.076 52.668 Q 271.344 53.712 272.928 54.288 Q 273.72 54.792 275.772 55.044 Q 277.824 55.296 280.272 55.368 Q 282.72 55.44 284.772 55.296 Q 286.824 55.152 287.616 54.864 Q 289.272 54.576 290.964 54.072 Q 292.656 53.568 294.24 52.776 Q 295.824 51.912 296.976 50.976 Z M 280.344 42.696 L 279.624 42.264 Q 279.408 42.048 279.228 41.652 Q 279.048 41.256 278.904 40.968 Q 278.616 40.392 278.544 39.708 Q 278.472 39.024 278.4 38.448 Q 278.256 36.936 278.256 35.388 Q 278.256 33.84 278.544 32.4 Q 278.688 31.608 278.904 30.888 Q 279.12 30.168 279.84 29.52 Q 280.128 29.376 280.452 29.124 Q 280.776 28.872 281.064 28.8 L 281.64 28.872 L 282.108 28.872 Q 282.36 28.872 282.504 28.944 Q 282.648 29.016 282.756 29.124 L 282.936 29.304 Q 283.152 29.448 283.368 29.628 Q 283.584 29.808 283.728 29.952 Q 283.944 30.24 284.124 30.636 Q 284.304 31.032 284.376 31.32 Q 284.736 32.256 284.772 33.264 Q 284.808 34.272 284.808 35.28 Q 284.88 36.36 284.844 37.476 Q 284.808 38.592 284.592 39.672 Q 284.448 40.248 284.232 40.932 Q 284.016 41.616 283.584 42.12 Q 283.368 42.336 282.972 42.588 Q 282.576 42.84 282.36 42.984 Q 282.216 43.056 281.964 43.02 Q 281.712 42.984 281.496 42.984 Q 281.424 42.984 281.208 43.02 Q 280.992 43.056 280.848 43.056 Q 280.776 42.984 280.632 42.876 Q 280.488 42.768 280.344 42.696 Z M 88.536 43.992 L 87.744 43.56 Q 87.672 43.488 87.564 43.452 Q 87.456 43.416 87.384 43.344 Q 87.312 43.2 87.312 42.948 Q 87.312 42.696 87.24 42.552 L 87.168 41.904 Q 87.24 41.76 87.384 41.616 L 87.6 41.4 Q 87.888 40.968 88.104 40.752 Q 88.608 40.392 89.22 40.248 Q 89.832 40.104 90.336 40.104 Q 90.48 40.104 90.732 40.032 Q 90.984 39.96 91.056 40.032 Q 91.272 40.104 91.488 40.32 L 91.848 40.68 Q 91.92 40.752 91.992 40.788 Q 92.064 40.824 92.136 40.968 Q 92.208 41.112 92.064 41.4 Q 92.064 41.544 92.1 41.868 Q 92.136 42.192 91.992 42.408 Q 91.92 42.48 91.776 42.66 Q 91.632 42.84 91.488 42.984 L 90.984 43.56 Q 90.768 43.632 90.516 43.704 Q 90.264 43.776 90.048 43.92 L 89.76 44.064 Q 89.616 44.136 89.472 44.136 Q 89.184 44.208 88.536 43.992 Z M 281.712 32.256 Q 281.856 32.256 281.856 32.328 Q 281.856 32.256 281.64 32.076 L 281.424 31.896 Q 281.208 31.896 281.424 32.112 Q 281.568 32.112 281.712 32.256 Z"/></g></svg>