<svg width="291.83" height="54.308" viewBox="0 0 291.83 54.308" xmlns="http://www.w3.org/2000/svg"><g id="svgGroup" stroke-linecap="round" fill-rule="nonzero" font-size="9pt" stroke="#015a84" stroke-width=".5" fill="#015a84" style="stroke:#015a84;stroke-width:.5;fill:#015a84"><path d="M 46.275 53.401 L 34.65 53.401 L 52.95 0.901 L 66.6 0.901 L 84.9 53.401 L 73.275 53.401 L 71.775 47.401 L 60.9 13.201 L 60.15 8.551 L 59.4 8.551 L 58.65 13.201 L 47.775 47.401 L 46.275 53.401 Z M 235.725 53.401 L 223.05 53.401 L 219.45 47.401 L 208.275 31.126 L 198.675 31.126 L 198.675 22.276 L 207.45 22.276 L 219.9 5.851 L 223.05 0.901 L 235.5 0.901 L 216.675 25.576 L 235.725 53.401 Z M 158.25 54.301 Q 153.45 54.301 148.95 52.951 Q 144.45 51.601 140.888 48.488 Q 137.325 45.376 135.263 40.201 A 31.663 31.663 0 0 1 133.285 30.334 A 52.298 52.298 0 0 1 133.2 27.301 A 39.745 39.745 0 0 1 134.434 16.831 A 24.82 24.82 0 0 1 135.262 14.326 Q 137.325 9.076 140.888 5.926 Q 144.45 2.776 148.95 1.388 Q 153.45 0.001 158.25 0.001 Q 163.125 0.001 167.475 1.388 Q 171.825 2.776 175.238 5.926 Q 178.65 9.076 180.6 14.326 A 33.97 33.97 0 0 1 182.47 24.264 A 55.477 55.477 0 0 1 182.55 27.301 A 41.15 41.15 0 0 1 181.372 37.721 A 25.512 25.512 0 0 1 180.6 40.163 Q 178.65 45.376 175.275 48.488 Q 171.9 51.601 167.513 52.951 Q 163.125 54.301 158.25 54.301 Z M 157.875 44.851 Q 162.525 44.851 165.525 42.901 Q 168.525 40.951 169.988 36.976 A 27.262 27.262 0 0 0 171.426 28.514 A 46.103 46.103 0 0 0 171.45 27.001 A 31.035 31.035 0 0 0 170.461 18.593 A 17.349 17.349 0 0 0 169.95 17.063 Q 168.45 13.201 165.45 11.326 Q 162.45 9.451 157.875 9.451 Q 153.3 9.451 150.263 11.326 Q 147.225 13.201 145.763 17.063 Q 144.3 20.926 144.3 26.926 Q 144.3 32.926 145.763 36.938 Q 147.225 40.951 150.263 42.901 Q 153.3 44.851 157.875 44.851 Z M 267.525 54.301 Q 262.725 54.301 258.225 52.951 Q 253.725 51.601 250.163 48.488 Q 246.6 45.376 244.538 40.201 A 31.663 31.663 0 0 1 242.56 30.334 A 52.298 52.298 0 0 1 242.475 27.301 A 39.745 39.745 0 0 1 243.709 16.831 A 24.82 24.82 0 0 1 244.537 14.326 Q 246.6 9.076 250.163 5.926 Q 253.725 2.776 258.225 1.388 Q 262.725 0.001 267.525 0.001 Q 272.4 0.001 276.75 1.388 Q 281.1 2.776 284.513 5.926 Q 287.925 9.076 289.875 14.326 A 33.97 33.97 0 0 1 291.745 24.264 A 55.477 55.477 0 0 1 291.825 27.301 A 41.15 41.15 0 0 1 290.647 37.721 A 25.512 25.512 0 0 1 289.875 40.163 Q 287.925 45.376 284.55 48.488 Q 281.175 51.601 276.788 52.951 Q 272.4 54.301 267.525 54.301 Z M 267.15 44.851 Q 271.8 44.851 274.8 42.901 Q 277.8 40.951 279.263 36.976 A 27.262 27.262 0 0 0 280.701 28.514 A 46.103 46.103 0 0 0 280.725 27.001 A 31.035 31.035 0 0 0 279.736 18.593 A 17.349 17.349 0 0 0 279.225 17.063 Q 277.725 13.201 274.725 11.326 Q 271.725 9.451 267.15 9.451 Q 262.575 9.451 259.538 11.326 Q 256.5 13.201 255.038 17.063 Q 253.575 20.926 253.575 26.926 Q 253.575 32.926 255.038 36.938 Q 256.5 40.951 259.538 42.901 Q 262.575 44.851 267.15 44.851 Z M 0 51.301 L 0 42.751 L 1.5 42.001 Q 3 43.276 5.138 44.288 Q 7.275 45.301 10.2 45.301 Q 12.075 45.301 13.725 44.701 Q 15.375 44.101 16.388 42.638 Q 17.4 41.176 17.4 38.476 L 17.4 9.901 L 17.4 0.901 L 28.5 0.901 L 27.75 6.901 L 27.75 39.001 Q 27.75 46.051 23.588 50.176 A 14.927 14.927 0 0 1 14.744 54.066 A 29.037 29.037 0 0 1 10.95 54.301 Q 6.375 54.301 3.863 53.288 Q 1.35 52.276 0 51.301 Z M 204.3 53.401 L 192.45 53.401 L 193.2 47.401 L 193.2 6.901 L 192.45 0.901 L 204.3 0.901 L 203.55 6.901 L 203.55 47.401 L 204.3 53.401 Z M 113.1 53.401 L 101.25 53.401 L 102 47.401 L 102 5.101 L 112.35 5.101 L 112.35 47.401 L 113.1 53.401 Z M 91.65 10.051 L 87.15 10.801 L 87.15 0.901 L 127.2 0.901 L 127.2 10.801 L 122.7 10.051 L 91.65 10.051 Z M 75.15 41.401 L 44.4 41.401 L 44.4 32.401 L 75.15 32.401 L 75.15 41.401 Z M 7.2 9.751 L 2.7 10.501 L 2.7 0.901 L 22.65 0.901 L 22.65 9.751 L 7.2 9.751 Z"/></g></svg>